<svg width="600" height="185" viewBox="0 0 600 185" fill="none" xmlns="http://www.w3.org/2000/svg">
<path d="M299.274 79.0414C295.141 77.4443 289.736 76.9655 283.854 76.9655H251.106V66.7444H307.381V49.1773H228.056V125.196H281.787C289.259 125.196 294.822 124.558 298.956 122.96C307.7 119.606 313.581 111.461 313.581 100.761C313.581 89.9021 308.017 82.3955 299.274 79.0414ZM287.828 105.392C286.557 105.872 284.808 106.031 282.581 106.031H251.106V93.894H282.581C285.126 93.894 287.192 94.0546 288.782 94.8524C290.689 95.8108 291.643 97.5677 291.643 99.8027C291.643 102.038 290.531 104.434 287.828 105.392Z" fill="#333333"/>
<path d="M378.212 49.1773H344.511L313.512 125.196H339.583L343.875 114.176H378.847L383.299 125.196H409.211L378.212 49.1773ZM349.597 97.4071L360.567 66.7444H362.315L373.284 97.4071H349.597Z" fill="#333333"/>
<path d="M438.881 96.929V125.196H415.831V49.1769H438.881V76.9655H475.921V49.1769H498.972V125.196H475.921V96.929H438.881Z" fill="#333333"/>
<path d="M535.457 96.4497V125.196H512.406V49.1769H535.457V77.764H541.816L569.635 49.1769H598.567L561.687 85.5893L599.998 125.196H569.317L541.816 96.4497H535.457Z" fill="#333333"/>
<path d="M0 0H184.616V92.8482C184.616 116.65 171.918 138.645 151.306 150.548L92.3079 184.615L33.3101 150.548C12.6976 138.645 2.11593e-05 116.65 2.11593e-05 92.8482L0 0Z" fill="#FFDD2D"/>
<path fill-rule="evenodd" clip-rule="evenodd" d="M50.6676 49.177V78.0547C54.6165 73.5954 61.7963 70.5774 70.0055 70.5774H78.9266V104.148C78.9266 113.079 76.5 120.896 72.8995 125.196H111.704C108.111 120.892 105.69 113.084 105.69 104.165V70.5774H114.612C122.821 70.5774 130.001 73.5955 133.95 78.0547V49.1769C133.95 49.1769 50.6676 49.1769 50.6676 49.177Z" fill="#333333"/>
</svg>
